<?xml version="1.0" encoding="UTF-8"?>
<svg id="Capa_1" xmlns="http://www.w3.org/2000/svg" viewBox="0 0 512 512">
  <defs>
    <style>
      .cls-1 {
        fill: #fff;
      }
    </style>
  </defs>
  <rect class="cls-1" x="0" y="0" width="512" height="512" rx="256" ry="256"/>
  <path d="M377.07,398.88c38.05-58.76,22.24-152.64,12.85-218.33-6.93-49.88-32.73-72.95-77.89-90.98-40.13-19-83.81,3.65-118.34,24.73-79.23,45.86-114.09,138.5-62.92,219.17,22.74,35.6,57.46,62.45,95.74,79.79,19.32,8.46,41.05,13.54,62.82,11.65,9.29-.79,18.86,1.85,29.63,3.61,23.58,5.45,46-10.96,58.11-29.63ZM386.64,266.62l-25.47,11.09c3.33-7.77,6.56-15.39,9.71-22.79,5.18,1.99,10.36,3.93,15.53,5.87.09,1.94.18,3.84.23,5.78v.05ZM275.23,315.2l-35.46-93.47-6.38-16.87c7.44,2.63,14.93,5.32,22.28,7.86,37.07,13.04,74.1,26.67,111.09,40.73-1.06,2.59-2.13,5.22-3.19,7.81-2.54,6.29-5.22,12.53-7.81,18.81l-80.53,35.13ZM348.87,296.67c-13.87,33.33-28.01,66.66-42.81,99.85l-26.49-69.9c21.4-9.29,44.56-19.28,69.3-30v.05ZM386.13,255.94c-4.53-1.66-9.11-3.28-13.59-4.9,2.45-5.73,4.9-11.42,7.26-16.92,1.39-3.47,2.82-6.84,4.21-10.12.79,10.12,1.53,20.9,2.13,31.94ZM311.52,90.81c43.78,17.98,67.17,42.16,69.67,90.88.32,9.15,1.11,20.16,2.03,32.31l-5.27,12.62h-.23s0,.46-.23.69c0,.23,0,.46-.23.46-2.91,7.3-5.92,14.47-8.88,21.73-52.19-18.91-97.82-35.69-137.11-50.3l-13.73-36.38-1.8-4.95-5.41-14.15-9.29-24.45c31.57-22.7,71.61-46.83,110.44-28.48h.05ZM190.82,126.73c4.58,11.88,13.04,34.21,25.47,66.98-1.66-.6-3.37-1.25-4.99-1.8-25.7-9.66-46.46-17.52-62.27-23.53,11.7-15.53,25.89-29.63,41.79-41.65ZM161.74,364.57c-10.54-9.94-19.88-21.03-27.27-33.38-32.27-54.27-21.4-112.38,11.51-158.56l59.13,21.87,13.27,4.81c1.11,2.96,2.27,6.01,3.47,9.15,12.02,31.8,26.12,69.16,42.11,111.69l-41.65,18.17-57.69,25.1-2.77,1.16h-.09ZM288.31,414.36c-19.69,2.27-40.03-.74-59.13-7.91-20.34-7.81-40.03-18.95-57.28-32.96,10.96-4.76,23.53-10.26,37.95-16.55,17.66-7.72,37.26-16.18,58.34-25.33,9.62,25.66,19.97,53.16,30.97,82.52-3.56-.23-7.17-.23-10.86.23ZM334.17,416.81c-10.17,1.66-20.06-1.06-30.56-2.27,18.44-44.24,35.27-84.23,50.43-120.1,10.63-4.62,21.68-9.38,32.91-14.24,1.06,59.68-6.98,121.26-52.84,136.6h.05Z"/>
</svg>